<?xml version="1.0" encoding="utf-8"?>
<!-- Generator: Adobe Illustrator 14.0.0, SVG Export Plug-In . SVG Version: 6.00 Build 43363)  -->
<!DOCTYPE svg PUBLIC "-//W3C//DTD SVG 1.1//EN" "http://www.w3.org/Graphics/SVG/1.1/DTD/svg11.dtd">
<svg version="1.1" id="Layer_1" xmlns="http://www.w3.org/2000/svg" xmlns:xlink="http://www.w3.org/1999/xlink" x="0px" y="0px"
	 width="851px" height="1057px" viewBox="0 0 851 1057" enable-background="new 0 0 851 1057" xml:space="preserve">
<path d="M777.967,217.239c-0.051-7.783-7.014-14.44-15.002-15.306c-1.895-0.205-9.15-0.391-8.408,3.227
	c0.656,3.196,6.246,4.373,8.834,4.159c8.145,12.089-9.313,20.351-18.406,21.687c-11.904,1.75-26.037,1.234-35.588-6.89
	c-0.621-0.528-0.506-2.897,0.107-3.522c7.711-7.848,11.758-17.502,8.83-28.758c-1.787-6.869-8.541-11.582-15.303-12.664
	c-21.928-3.512-18.871,25.188-11.512,38.436c0.492,0.883,0.469,3.247-0.068,3.646c-11.273,8.389-25.4,14.059-39.475,14.547
	c-0.861,0.03-1.684,0.007-2.484-0.039c-10.965-3.416-14.59-16.238-15.652-28.859c-0.225-5.348,1.885-6.409,3.002-6.698
	c11.098-2.872,22.537-8.556,27.521-18.673c6.758-13.721-3.646-25.686-17.281-27.682c-0.65-0.096-1.289-0.16-1.92-0.21
	c0.002-0.001,0.002-0.001,0.002-0.001c-18.473-1.627-30.838,8.672-32.85,35.506c-0.018,0.256-0.029,0.503-0.047,0.756
	c-2.92,5.832-6.844,11.159-10.799,16.438c-5.314,7.094-12.199,16.955-20.584,20.643c-8.998-12.759,1.693-37.305,7.691-49.129
	c2.506-4.939,11.527-13.736,2.904-16.538c-6.08-1.976-12.797,0.841-19.24,2.466c0.322-0.792,0.58-1.459,0.762-1.973
	c3.58-10.169,4.764-24.318-13.717-27.901v0.004c-3.857-1.13-8.15-1.077-11.922-0.022c-6.76,1.889-13.207,7.234-13.547,14.691
	c-0.416,9.136,7.098,15.786,14.801,19.334c0.664,0.307,0.963,2.972,0.449,4.033c-4.971,10.284-9.889,20.586-15.428,30.584
	c-4.73,8.537-9.938,19.111-17.318,26.174c-1.055,1.01-4.365,1.084-4.793,0.167c-5.902-12.696,1.324-32.941,5.797-44.343
	c2.986-5.077,11.496-16.754,2.162-19.347c-9.543-2.65-11.43,7.626-14.26,14.692c-4.752,8.051-10.305,15.852-16.031,23.239
	c-4.369,5.64-10.313,13.28-17.16,16.902c-1.031,0.544-3.217-1.029-3.215-2.192c0.031-38.914,24.998-61.563,29.016-60.025
	c2.26,1.105,4.518,2.326,7.123,2.424c7.156,0.266,4.262-4.687,0.125-6.852c-5.518-2.889-11.738-4.581-17.998-4.176
	c-12.9,0.838-21.449,10.504-28.307,20.482c-5.252,7.645-10.635,18.855-18.734,24.753c-1.699,1.237-4.33-1.065-3.684-3.575
	c4.604-17.857,10.41-51.066-8.297-57.275c-15.229-5.055-23.027,10.973-24.025,23.367c-1.221,15.196,2.104,33.982,15.668,43.021
	c-3.105,8.262-7.643,17.18-14.463,23.251c-0.975,0.868-4.209,1.212-4.688,0.281c-4.945-9.62-3.41-41.104-1.574-48.442
	c2.012-8.051,1.006-11.404-5.221-13.371v0.002c-1.723-0.858-3.875-1.268-5.139-1.335c-5.873-0.317-6.064,5.199-7.605,9.723
	c-2.316,6.794-4.764,13.548-7.51,20.182c-3.932,9.49-8.764,22.058-16.059,30.61c-0.863,1.012-3.773,1.242-3.992-0.429
	c-1.541-11.694,6.576-48.866,8.629-54.438c2.348-6.374,4.025-10.063-2.975-13.064c-2.32-1.393-5.582-2.106-8.242-1.418
	c-3.576,0.925-3.908,6.711-4.926,9.625c-1.771,5.071-3.748,10.072-5.945,14.977c-8.4,18.75-20.43,38.111-37.143,50.551
	c-8.055,5.996-15.311,8.803-21.416-1.035c-3.742-6.029-5.317-13.553-5.367-20.721c0.002-3.351,2.241-3.975,3.34-4.09
	c17.593-1.845,41.11-13.19,40.02-33.384c-0.455-8.409-6.686-13.71-14.059-15.354c-12.84-4.098-28.029-0.271-39.873,16.689
	c-0.672,0.962-3.158,1.003-3.796,0.025c-8.758-13.435-23.728-23.461-46.466-33.221c-0.808-0.348-1.402-2.523-0.908-3.274
	c21.636-32.883,3.182-77.201-34.164-88.015c-18.953-5.488-40.171-3.18-57.675,5.846c-8.127,4.191-15.677,10.442-20.481,18.295
	c-3.945,6.445-7.469,18.947-1.392,25.396c3.459,3.671,13.293,4.536,10.981-2.388c-2.667-7.985-0.07-16.039,5.056-22.4
	c10.492-13.021,28.322-20.437,44.809-20.624c40.935-0.466,62.043,46.487,40.853,79.326c-0.451,0.699-2.763,1.602-3.491,1.361
	c-11.762-3.883-32.162-7.727-38.407,5.542c-4.944,10.504,5.599,18.234,15.03,19.475c11.353,1.49,22.432-4.208,30.552-11.857
	c0.628-0.591,3.93-0.645,4.968-0.037c18.421,10.784,33.878,27.2,32.13,50.023c-1.674,21.861-17.18,38.699-34.858,50.105
	c-1.047,0.676-3.329,1.943-5.336,0.793c-16.432-8.69-41.791-17.549-61.207-12.086c-4.261,1.199-8.153-2.059-6.603-6.094
	c7.132-18.561,10.896-38.365,14.677-57.816c4.935-25.391,9.245-50.918,12.19-76.621c0.688-6.011,1.396-12.021,1.816-18.058
	c0.23-3.321,1.889-9.299-1.123-11.794c-2.017-1.674-4.986-2.408-7.563-2.371c-5.034,0.068-3.755,4.291-3.91,8.215
	c-0.999,25.382-5.851,50.725-10.065,75.729c-4.107,24.361-8.668,48.953-16.276,72.502c-3.335,10.326-8.275,23.701-16.004,33.72
	c-3.146,4.079-6.385-0.603-5.685-2.185c9.124-20.586,13.377-43.028,17.652-65.021c4.935-25.39,9.245-50.918,12.189-76.621
	c0.688-6.01,1.396-12.021,1.816-18.057c0.23-3.32,1.889-9.299-1.122-11.795c-2.017-1.672-4.986-2.406-7.563-2.371
	c-5.033,0.07-3.755,4.292-3.91,8.217c-0.999,25.381-5.851,50.724-10.065,75.728c-4.107,24.361-8.668,48.952-16.276,72.503
	c-3.067,9.493-7.705,21.424-14.188,31.244c-0.416,0.631-4.619,1.143-6.074,0.477c-2.542-1.164-4.816-2.803-6.519-4.857
	c-7.292-8.797,0.754-18.973,8.982-23.286c4.815-2.524-4.047-6.17-5.734-6.399c-4.371-0.594-8.504,2.613-11.618,5.328
	c-4.427,3.859-7.292,9.36-7.278,14.931c0.007,2.976,0.836,5.971,2.686,8.745c6.39,9.584,20.012,14.16,30.982,14.558
	c10.35,0.376,19.293-3.263,26.571-9.606c2.688-2.344,8.03-1.553,9.576,0.863c4.637,7.244,15.63,9.723,24.538,10.109
	c21.073,1.383,44.191-2.482,64.68-10.017c0.453-0.167,2.228,0.496,2.644,1.009c6.136,7.561,9.392,16.869,7.374,27.121
	c-1.105,5.61-3.268,11.32-6.821,15.857c-2.141,2.734-8.305,7.509-10.875,5.706c-4.197-2.943-9.163-5.903-8.148-12.142
	c0.536-3.29,4.708-5.343,5.053-7.942c0.335-2.528-4.545-4.255-6.296-4.62c-8.27-1.726-13.033,7.875-11.065,14.813
	c2.057,7.252,8.587,12.823,15.476,15.332c18.331,6.676,32.343-6.995,35.71-24.363c2.398-12.376-2.574-23.371-10.493-32.135
	c-2.108-2.531-0.743-3.52,0.165-3.948c13.974-6.592,26.001-14.963,34.287-24.502c2.008-2.056,4.662-1.196,5.809-0.329
	c7.327,5.538,16.854,8.516,26.044,9.081v-0.001c15.947,1.529,30.751-13.09,40.992-26.279c1.848-2.38,4.836-1.268,5.125,1.559
	c0.982,9.648,5.494,18.572,17.207,18.441c11.549-0.129,18.289-12.231,23.127-22.459c1.066-2.254,3.279-2.062,3.602,0.268
	c1.678,12.057,6.631,26.277,20.852,23.882c13.785-2.322,23.061-15.055,28.439-27.259c0.496-1.125,2.719-3.198,3.381-3.16
	c5.135,0.295,10.111-0.949,14.506-3.467c1.533-0.881,4.178-0.299,4.139,1.145c-0.287,10.1,1.559,21.271,12.275,25.084
	c11.033,3.924,20.613-3.209,28.09-10.963c1.457-1.51,3.988-0.453,4.111,1.624c0.441,7.337,2.715,14.71,9.201,18.822
	c3.09,1.958,6.115,2.685,9.008,2.512c17.908,0.085,42.887-45.71,53.195-67.649c2.053-0.023,4.111-0.158,6.166-0.389
	c0.975-0.109,1.73,1.858,1.107,3.088c-7.6,15.018-17.363,39.947-6.064,53.872c13.25,16.325,30.787-1.218,41.084-14.31
	c0.926-1.178,3.32-0.319,3.76,1.108c3.262,10.606,9.203,17.163,15.549,20.411c0.01,0.004,0.02,0.008,0.029,0.014
	c4.662,3.603,10.439,6.033,17.383,6.914c17.166,2.176,36.201-3.863,50.742-13.225c0.816-0.525,4.248-0.278,5.209,0.336
	c15.123,9.676,36.732,11.195,53.754,7.114c8.254-1.979,16.447-6.313,19.699-14.622C777.678,220.596,777.979,218.892,777.967,217.239
	z M634.154,187.833c1.949-12.871,7.469-25.781,10.721-27.226c10.102-2.997,9.064,13.563,5.975,18.271
	c-3.271,4.983-7.986,8.787-13.279,11.473C636.291,191,633.938,189.263,634.154,187.833z M277.984,190.496
	c1.471-5.521,3.722-10.826,6.513-15.504c3.929-6.586,11.061-15.751,19.452-16.406c6.167,4.98,1.183,16.375-2.594,21.092
	c-5.15,6.434-12.879,11.088-20.903,13.223C279.384,193.183,277.708,191.529,277.984,190.496z M194.062,137.615
	c-3.175,2.95-6.721,5.469-10.545,7.38c-2.219,1.109-6.463,3.591-9.004,2.327c-3.474-1.728-2.862-7.277-1.057-9.924
	c4.065-5.959,12.939-5.104,19.538-3.291C195.676,134.836,194.894,136.842,194.062,137.615z M190.508,251.929
	c-2.999,1.355-6.001,2.598-8.973,3.727c-11.482,4.361-24.581,9.137-37.074,8.353c-10.353-0.649-13.774-9.982-7.27-17.9
	c12.477-15.19,36.341-9.226,53.237-1.554C193.145,245.789,193.003,250.8,190.508,251.929z M425.855,143.628
	c4.039,12.491,1.379,28.865-1.814,41.883c-0.426,1.737-3.367,0.697-3.484,0.402c-4.574-11.555-7.691-32.506,1.715-42.6
	C423.057,142.472,425.568,142.74,425.855,143.628z M554.377,160.333c-0.328,0.817-2.059,1.565-2.582,1.168
	c-2.336-1.771-4.078-4.359-4.891-8.031c-1.32-5.979,3.338-11.854,8.982-13.393C559.748,145.07,556.75,154.392,554.377,160.333z
	 M704.188,187.572c3.961,6.539,2.762,14.906-0.959,21.419c-0.65,1.138-2.818,1.456-3.121,0.458
	c-1.955-6.446-3.023-15.72,0.953-20.851c0.436-0.563,0.92-1.023,1.455-1.421C703.68,186.58,703.975,187.222,704.188,187.572z
	 M809.443,207.483h-0.008v-0.007h0.008V207.483z"/>
</svg>
